<?xml version="1.0" encoding="UTF-8" standalone="no"?>
<svg
   width="187"
   height="195"
   viewBox="0 0 187 195"
   version="1.1"
   id="svg98"
   sodipodi:docname="engine.svg"
   inkscape:version="1.4.4 (dcaf3e7d9e, 2026-05-05)"
   xmlns:inkscape="http://www.inkscape.org/namespaces/inkscape"
   xmlns:sodipodi="http://sodipodi.sourceforge.net/DTD/sodipodi-0.dtd"
   xmlns="http://www.w3.org/2000/svg"
   xmlns:svg="http://www.w3.org/2000/svg">
  <defs
     id="defs98">
    <linearGradient
       id="gradient_1"
       gradientUnits="userSpaceOnUse"
       x1="963.74487"
       y1="1051.7085"
       x2="872.21051"
       y2="934.47986"
       gradientTransform="matrix(1.5,0,0,1.5,-1282.936,-1392.0953)">
      <stop
         offset="0"
         stop-color="#28456C"
         id="stop16" />
      <stop
         offset="1"
         stop-color="#41699E"
         id="stop17" />
    </linearGradient>
  </defs>
  <sodipodi:namedview
     id="namedview98"
     pagecolor="#ffffff"
     bordercolor="#000000"
     borderopacity="0.25"
     inkscape:showpageshadow="2"
     inkscape:pageopacity="0.0"
     inkscape:pagecheckerboard="0"
     inkscape:deskcolor="#d1d1d1"
     inkscape:zoom="1.1077586"
     inkscape:cx="31.595331"
     inkscape:cy="266.3035"
     inkscape:window-width="879"
     inkscape:window-height="1387"
     inkscape:window-x="12"
     inkscape:window-y="39"
     inkscape:window-maximized="0"
     inkscape:current-layer="svg98" />
  <path
     fill="#335584"
     d="m 113.35068,69.006558 c 12.162,-11.04495 15.2445,-11.11335 31.4805,-11.79255 -5.229,5.37765 -18.717,18.6582 -22.3785,24.12375 3.8295,0.59625 5.538,0.6936 9.4185,0.70425 l 2.181,-1.0275 c 0.873,1.9641 0.7155,3.22455 0.7515,5.35455 l 1.11,1.17075 c 8.409,-0.48135 9.9195,-1.593 16.95,3.6081 14.037,10.386152 4.068,56.624252 -16.593,45.042752 l -1.545,-2.1465 -2.787,3.171 c -17.532,1.1715 -35.121004,1.203 -52.657504,0.0945 -5.3235,-4.6665 -9.8145,-8.055 -15.453,-12.222 l -18.378,-0.207 c 0.363,-6.78645 0.819,-12.51465 -1.368,-18.99705 -4.194,2.14755 -5.1495,12.98805 -10.5525,18.01755 -4.4235,-6.04965 -9.1425,-43.296002 0.6975,-49.854752 4.317,5.08485 2.9685,13.6977 7.1985,20.7021 l 2.0985,-0.82965 c 2.736,-4.7196 1.8435,-12.44205 1.95,-18.65355 8.1615,-0.003 24.804,1.86195 29.8095,-2.54715 -2.373,-2.5764 -12.3915,-3.2181 -17.2485,-4.1118 l -1.2045,-2.20725 c 3.2655,-11.73285 35.9955,-8.298 45.868504,-6.75465 3.4395,2.9481 2.6175,3.70905 3.7455,9.0123 l 1.659,2.1078 z"
     id="path452"
     style="stroke-width:1.5" />
  <path
     fill="#1b2f4a"
     d="m 45.474176,75.265308 c 8.1615,-0.003 24.804,1.86195 29.8095,-2.54715 -2.373,-2.5764 -12.3915,-3.2181 -17.2485,-4.1118 l -1.2045,-2.20725 c 3.2655,-11.73285 35.9955,-8.298 45.868504,-6.75465 3.4395,2.9481 2.6175,3.70905 3.7455,9.0123 l 1.659,2.1078 5.247,-1.758 c -2.79,2.91225 -6.318,6.82545 -9.171,9.5136 l -4.333504,4.6839 c -16.2795,-0.60225 -29.739,-0.4545 -45.9585,-0.0327 l 0.4335,33.910502 c 17.8455,1.7913 15.84,2.9628 30.084,12.3723 8.1945,0.489 29.214004,1.353 37.591504,-2.4885 1.005,-0.4605 2.7165,-4.293 3.3045,-5.598 3.8685,-2.565 15.2745,-4.0968 17.5605,0.879 0.879,1.9125 1.5975,3.984 2.2455,5.9955 l 1.659,-0.0255 c 3.576,-4.65 3.5295,-23.36505 0.4155,-27.26895 -11.5455,5.01885 -1.7985,5.30265 -18.2445,5.59725 l -3.282,-0.7704 c -1.821,-2.34525 -1.62,-3.1659 -1.8,-6.107252 2.733,-2.6304 5.1165,-2.0658 9.6405,-2.65575 2.394,-2.37045 1.92,-5.35695 2.418,-9.47175 8.409,-0.48135 9.9195,-1.593 16.95,3.6081 14.037,10.386152 4.068,56.624252 -16.593,45.042752 l -1.545,-2.1465 -2.787,3.171 c -17.532,1.1715 -35.121004,1.203 -52.657504,0.0945 -5.3235,-4.6665 -9.8145,-8.055 -15.453,-12.222 l -18.378,-0.207 c 0.363,-6.78645 0.819,-12.51465 -1.368,-18.99705 -4.194,2.14755 -5.1495,12.98805 -10.5525,18.01755 -4.4235,-6.04965 -9.1425,-43.296002 0.6975,-49.854752 4.317,5.08485 2.9685,13.6977 7.1985,20.7021 l 2.0985,-0.82965 c 2.736,-4.7196 1.8435,-12.44205 1.95,-18.65355 z"
     id="path453"
     style="stroke-width:1.5" />
  <path
     fill="#375d8e"
     d="m 106.44468,68.656758 1.659,2.1078 5.247,-1.758 c -2.79,2.91225 -6.318,6.82545 -9.171,9.5136 -3.7215,-3.9918 -15.102004,-4.18095 -22.741504,-6.02775 9.8295,-2.9262 17.796,-1.09215 25.006504,-3.83565 z"
     id="path454"
     style="stroke-width:1.5" />
  <path
     fill="#33445e"
     d="m 131.93868,137.21516 c 0.006,-3.858 -0.003,-4.4145 1.512,-7.9425 l 1.269,0.7695 0.006,4.002 z"
     id="path455"
     style="stroke-width:1.5" />
  <path
     fill="#badbf8"
     d="m 113.35068,69.006558 c 12.162,-11.04495 15.2445,-11.11335 31.4805,-11.79255 -5.229,5.37765 -18.717,18.6582 -22.3785,24.12375 3.8295,0.59625 5.538,0.6936 9.4185,0.70425 l 2.181,-1.0275 c 0.873,1.9641 0.7155,3.22455 0.7515,5.35455 l 1.11,1.17075 c -0.498,4.1148 -0.024,7.1013 -2.418,9.47175 -4.524,0.58995 -6.9075,0.0254 -9.6405,2.65575 0.18,2.941352 -0.021,3.762002 1.8,6.107252 l 3.282,0.7704 -3.4785,1.24395 -2.139,-1.42185 c -0.168,-2.6211 -0.2685,-4.8714 -0.2955,-7.498952 -9.318,2.790002 -5.529,8.242952 -17.505,10.716602 -4.1415,1.0485 -20.911504,10.34145 -25.807504,12.78195 1.4895,-3.138 4.158,-8.7525 6.3495,-11.32185 4.0485,-4.7466 18.145504,-13.968902 19.351504,-19.712702 -3.8505,0.19575 -5.4015,0.5184 -9.168004,-0.66285 l -0.453,-2.2455 4.0545,-5.2197 4.333504,-4.6839 c 2.853,-2.68815 6.381,-6.60135 9.171,-9.5136 z"
     id="path456"
     style="stroke-width:1.5" />
  <path
     fill="#375d8e"
     d="m 131.87118,82.042008 2.181,-1.0275 c 0.873,1.9641 0.7155,3.22455 0.7515,5.35455 l 1.11,1.17075 c -0.498,4.1148 -0.024,7.1013 -2.418,9.47175 -4.524,0.58995 -6.9075,0.0254 -9.6405,2.65575 0.18,2.941352 -0.021,3.762002 1.8,6.107252 l 3.282,0.7704 -3.4785,1.24395 -2.139,-1.42185 c -0.168,-2.6211 -0.2685,-4.8714 -0.2955,-7.498952 -9.318,2.790002 -5.529,8.242952 -17.505,10.716602 5.3655,-3.3015 25.0005,-22.435352 26.352,-27.542702 z"
     id="path457"
     style="stroke-width:1.5" />
</svg>
